<?xml version="1.0" encoding="utf-8"?>
<!-- Generator: Adobe Illustrator 26.0.2, SVG Export Plug-In . SVG Version: 6.00 Build 0)  -->
<svg version="1.1" id="Layer_1" xmlns="http://www.w3.org/2000/svg" xmlns:xlink="http://www.w3.org/1999/xlink" x="0px" y="0px"
	 viewBox="0 0 1190.55 841.89" style="enable-background:new 0 0 1190.55 841.89;" xml:space="preserve">
<style type="text/css">
	.st0{fill:#4A5F70;}
	.st1{fill:#007C95;}
</style>
<polygon class="st0" points="561.99,282.06 562.36,399.23 465.59,282.06 440.01,282.06 440.01,467.46 476.71,467.46 476.34,350.29 
	573.12,467.46 598.7,467.46 598.7,282.06 "/>
<rect x="838.83" y="282.06" class="st0" width="36.33" height="185.39"/>
<g>
	<path class="st0" d="M1012.34,355.7c51.31,4.63,69.12,18.88,69.12,53.44c0,31.71-19.95,59.15-78.39,59.15
		c-17.81,0-50.24-4.63-60.93-9.26v-33.49c11.76,4.27,38.13,8.91,61.28,8.91c31.71,0,42.76-9.26,42.76-24.94
		c0-13.54-8.91-18.88-37.06-21.38c-52.38-4.63-70.19-16.75-70.19-49.17c0-33.85,20.31-58.08,74.82-58.08
		c17.46,0,40.98,1.43,59.5,9.27v32.78c-17.81-5.7-37.41-8.19-59.86-8.19c-29.58,0-39.9,7.48-39.9,22.44
		C973.51,350,984.55,353.21,1012.34,355.7"/>
	<path class="st0" d="M663.07,365.12h42.64c22.62,0,26.7-10.75,26.7-24.1c0-13.35-4.08-24.1-26.7-24.1h-42.64l-0.11-34.85h44.23
		c47.83,0,63.78,25.21,63.78,58.59c0,22.62-9.64,42.64-29.66,52.65l43.01,74.16h-44.5l-35.22-67.85h-41.53V365.12z"/>
</g>
<path class="st1" d="M375.76,432.94L375.76,432.94h-33.62c-8.13,0-12.21-0.65-16.13-15.33l-25.26-98.02
	c-6.44-25.23-22.34-37.5-48.6-37.5H209.7c-14.76,0-27.14,4.34-36.27,12.11c-9.13-7.77-21.51-12.11-36.27-12.11H108.2v34.56h28.95
	c13.31,0,18.99,5.68,18.99,18.99v78.3c0,32.53,21.02,53.54,53.55,53.54h166.05v0h0.01V432.94z M190.71,413.95v-78.3
	c0-13.31,5.68-18.99,18.99-18.99h42.44c10.7,0,13.23,2.9,14.87,9.45l25.31,98.19c0.78,2.93,1.64,5.82,2.61,8.65H209.7
	C196.39,432.94,190.71,427.26,190.71,413.95z"/>
</svg>
